<svg width="24" height="24" viewBox="0 0 24 24" fill="none" xmlns="http://www.w3.org/2000/svg">
<path d="M18 7C18 6.73478 17.8946 6.48051 17.707 6.29297C17.5429 6.12883 17.3276 6.02757 17.0986 6.00488L17 6H7C6.73478 6 6.4805 6.10543 6.29297 6.29297C6.10543 6.4805 6 6.73478 6 7V17L6.00488 17.0986C6.02757 17.3276 6.12883 17.5429 6.29297 17.707C6.48051 17.8946 6.73478 18 7 18H17C17.2652 18 17.5195 17.8946 17.707 17.707C17.8946 17.5195 18 17.2652 18 17V7ZM20 17C20 17.7957 19.6837 18.5585 19.1211 19.1211C18.5585 19.6837 17.7957 20 17 20H7C6.20435 20 5.44151 19.6837 4.87891 19.1211C4.3163 18.5585 4 17.7956 4 17V7C4 6.20435 4.3163 5.44152 4.87891 4.87891C5.44152 4.3163 6.20435 4 7 4H17C17.7956 4 18.5585 4.3163 19.1211 4.87891C19.6837 5.44151 20 6.20435 20 7V17Z" fill="currentColor"/>
<path d="M12.9395 3.93945L3.93945 12.9395L6.06055 15.0605L15.0605 6.06055L12.9395 3.93945Z" fill="currentColor"/>
<path d="M17.9394 8.93945L8.93945 17.9395L11.0605 20.0605L20.0605 11.0605L17.9394 8.93945Z" fill="currentColor"/>
</svg>
